<svg
  xmlns="http://www.w3.org/2000/svg"
  width="192"
  height="96"
  viewBox="0 0 192 96"
  fill="none"
>
  <g fill="white">
    <rect x="4"   y="8" width="16" height="16"/>
    <rect x="36"  y="8" width="16" height="16"/>
    <rect x="68"  y="8" width="16" height="16"/>
    <rect x="100" y="8" width="16" height="16"/>
    <rect x="132" y="8" width="16" height="16"/>
    <rect x="164" y="8" width="16" height="16"/>

    <rect x="20"  y="24" width="16" height="16"/>
    <rect x="84"  y="24" width="16" height="16"/>
    <rect x="148" y="24" width="16" height="16"/>

    <rect x="4"   y="40" width="16" height="16"/>
    <rect x="36"  y="40" width="16" height="16"/>
    <rect x="68"  y="40" width="16" height="16"/>
    <rect x="100" y="40" width="16" height="16"/>
    <rect x="132" y="40" width="16" height="16"/>
    <rect x="164" y="40" width="16" height="16"/>

    <rect x="4"   y="72" width="48" height="16"/>
    <rect x="68"  y="72" width="48" height="16"/>
    <rect x="132" y="72" width="48" height="16"/>
  </g>
</svg>
